<?xml version="1.0" encoding="UTF-8" standalone="no"?>
<!-- Created with Inkscape (http://www.inkscape.org/) -->

<svg
   width="256"
   height="256"
   viewBox="0 0 67.733332 67.733335"
   version="1.1"
   id="svg965"
   inkscape:version="1.3 (0e150ed6c4, 2023-07-21)"
   sodipodi:docname="Icon.svg"
   inkscape:export-filename="Icon.png"
   inkscape:export-xdpi="96"
   inkscape:export-ydpi="96"
   xmlns:inkscape="http://www.inkscape.org/namespaces/inkscape"
   xmlns:sodipodi="http://sodipodi.sourceforge.net/DTD/sodipodi-0.dtd"
   xmlns:xlink="http://www.w3.org/1999/xlink"
   xmlns="http://www.w3.org/2000/svg"
   xmlns:svg="http://www.w3.org/2000/svg">
  <sodipodi:namedview
     id="namedview967"
     pagecolor="#ffffff"
     bordercolor="#666666"
     borderopacity="1.0"
     inkscape:pageshadow="2"
     inkscape:pageopacity="0.0"
     inkscape:pagecheckerboard="0"
     inkscape:document-units="mm"
     showgrid="false"
     units="px"
     inkscape:zoom="2.5620932"
     inkscape:cx="88.209127"
     inkscape:cy="120.01906"
     inkscape:window-width="1920"
     inkscape:window-height="1017"
     inkscape:window-x="-4"
     inkscape:window-y="-4"
     inkscape:window-maximized="1"
     inkscape:current-layer="layer1"
     inkscape:showpageshadow="2"
     inkscape:deskcolor="#d1d1d1" />
  <defs
     id="defs962">
    <symbol
       id="DownArrow">
      <title
         id="title284">Down Arrow</title>
      <path
         d="M 36,63 14,41 V 26 L 30,42 V 10 H 42 V 42 L 58,26 v 15 z"
         style="stroke:none"
         id="path284" />
    </symbol>
  </defs>
  <g
     inkscape:label="Layer 1"
     inkscape:groupmode="layer"
     id="layer1"
     transform="translate(168.94715,5.3699583)">
    <rect
       style="display:inline;fill:#512b99;fill-opacity:1;stroke-width:2.9599;paint-order:markers fill stroke"
       id="rect1"
       width="67.73333"
       height="67.73333"
       x="-168.94714"
       y="-5.3699584"
       sodipodi:insensitive="true" />
    <path
       style="fill:#ffffff;stroke:#ffffff;stroke-width:1.68857;stroke-miterlimit:4;stroke-dasharray:none;stroke-opacity:1"
       d="m 12.890347,57.750719 c -1.34126,-0.624501 -2.27096,-1.249912 -2.27096,-1.527676 0,-0.648001 2.44019,-4.486315 2.98508,-4.695413 0.24332,-0.09341 0.65686,0.04475 0.91898,0.306839 0.42664,0.426637 0.42606,0.574328 -0.006,1.408933 l -0.48214,0.932334 1.6591,-0.839127 c 5.69946,-2.882658 10.7018,-7.866182 13.48923,-13.438489 3.1278,-6.252746 3.72515,-13.022132 1.74672,-19.794426 -0.71302,-2.440763 -0.63038,-3.22848 0.33872,-3.22848 1.39455,0 3.09885,8.240455 2.7059,13.083304 -0.84304,10.389917 -7.6636,20.268647 -17.27311,25.017928 l -2.39439,1.183365 0.96055,0.454909 c 1.11229,0.52677 1.4646,1.191476 0.95621,1.804066 -0.48993,0.590321 -0.73873,0.540468 -3.33435,-0.668067 z M -1.9100926,57.621485 C -15.837543,54.649421 -25.741843,42.605562 -25.758263,28.621593 c -0.002,-2.498592 0.16662,-3.702769 0.83801,-5.9515 0.46292,-1.550521 0.9108,-3.059104 0.99527,-3.352406 0.13512,-0.469124 0.0421,-0.491221 -0.77256,-0.183688 -1.12508,0.42467 -2.04218,0.131136 -1.89982,-0.608074 0.11165,-0.579982 4.06837,-2.903658 4.94426,-2.903658 0.34903,0 0.86189,0.772616 1.54565,2.32848 1.11261,2.531749 1.15467,3.416293 0.16911,3.558058 -0.46981,0.06757 -0.78911,-0.220413 -1.21554,-1.096328 l -0.57834,-1.187988 -0.4121,0.982361 c -3.5991,8.579661 -1.29622,19.473932 5.71084,27.016356 5.1726,5.567809 11.5181304,8.547025 19.3051704,9.063732 3.15393,0.209286 3.20576,0.225388 3.20576,0.995814 0,0.76903 -0.0478,0.784207 -2.66251,0.844999 -1.61736,0.03765 -3.70767001,-0.161127 -5.32503,-0.506266 z m 2.66066999,-8.874438 c -0.0764,-0.21535 -0.17763,-1.218327 -0.2251,-2.228833 l -0.0863,-1.837286 -1.87941999,-0.697901 c -1.03368,-0.383853 -2.27172,-0.885678 -2.75122,-1.115163 -0.83021,-0.397371 -0.93535,-0.354894 -2.2045,0.890698 -0.733,0.719377 -1.54289,1.307958 -1.79977,1.307958 -0.61013,0 -4.3644104,-3.79077 -4.3644104,-4.406829 0,-0.260988 0.60982,-1.073017 1.35516,-1.804505 l 1.3551604,-1.32999 -0.8758904,-1.736454 c -0.48174,-0.955054 -0.96629,-2.218343 -1.07679,-2.807316 l -0.20088,-1.070848 h -1.96282 c -1.29982,0 -2.0857,-0.148057 -2.32659,-0.438311 -0.23478,-0.282878 -0.33168,-1.476914 -0.27329,-3.367292 l 0.0905,-2.928987 2.15075,-0.156619 2.15074,-0.156618 0.69769,-1.879421 c 0.38372,-1.03368 0.88545,-2.271729 1.11495,-2.751217 0.3973604,-0.830221 0.35488,-0.935353 -0.89071,-2.204513 -0.71938,-0.732994 -1.30796,-1.54289 -1.30796,-1.799766 0,-0.595761 3.7837404,-4.364408 4.3818904,-4.364408 0.24726,0 1.04809,0.587404 1.77961,1.30534 l 1.33005,1.305343 2.12741,-0.966289 c 1.17009,-0.531458 2.40932999,-1.01444 2.75388999,-1.073292 0.53796,-0.0919 0.6486,-0.416402 0.78309,-2.296784 l 0.15662,-2.1897767 3.20199001,-0.08917 c 3.63304,-0.101181 3.44051,-0.254878 3.60737,2.8800427 l 0.0818,1.537923 1.63904,0.555499 c 0.9014696,0.305523 2.0637096,0.806349 2.5827396,1.112944 l 0.94367,0.557448 1.34459,-1.319613 c 0.73953,-0.725786 1.62768,-1.319612 1.97367,-1.319612 0.38373,0 1.40335,0.864802 2.61444,2.217475 l 1.98535,2.217475 -1.45918,1.481452 -1.45917,1.481452 0.90356,2.017644 c 0.49697,1.109704 0.99476,2.398858 1.10624,2.864785 0.19243,0.804335 0.3094,0.851823 2.31463,0.939711 l 2.11196,0.09257 v 3.288986 3.288986 l -2.09376,0.0921 -2.09378,0.09211 -0.5254,1.63065 c -0.28896,0.896854 -0.79907,2.109544 -1.13358,2.694858 l -0.6082,1.064197 0.88777,0.97184 c 0.48829,0.534501 1.15653,1.294047 1.48499,1.687867 l 0.59721,0.716051 -2.16469,2.181394 c -1.19056,1.199774 -2.37456,2.181395 -2.63108,2.181395 -0.25651,0 -1.0664,-0.588854 -1.79972,-1.308563 l -1.33334,-1.308563 -1.72628,0.845285 c -0.94947,0.464899 -2.1519996,0.930415 -2.6723096,1.034479 -0.92995,0.185988 -0.946,0.222015 -0.946,2.123443 0,1.08675 -0.16469,2.098926 -0.37589,2.31012 -0.53026,0.530262 -6.17193001,0.516375 -6.36055001,-0.01563 z M 5.2991474,45.614683 c 0.002,-0.904466 0.12889,-1.840446 0.28055,-2.079936 0.15166,-0.239499 1.28758,-0.756254 2.52427,-1.148345 1.23668,-0.392091 2.7988996,-1.077125 3.4715796,-1.522289 0.67267,-0.445154 1.33843,-0.809377 1.47943,-0.809377 0.14102,0 0.80695,0.563827 1.47986,1.252944 0.67291,0.689116 1.37993,1.252943 1.57115,1.252943 0.19123,0 0.75429,-0.424401 1.25125,-0.943121 l 0.90357,-0.943119 -1.31483,-1.339698 c -0.72314,-0.73684 -1.31481,-1.5127 -1.31481,-1.724142 0,-0.211431 0.40768,-1.122314 0.90594,-2.024175 0.86145,-1.559201 1.30789,-2.767395 1.73441,-4.693815 0.1841,-0.831479 0.26123,-0.861397 2.22078,-0.861397 h 2.03007 v -1.566182 -1.566185 h -1.84106 c -2.06109,0 -2.36113,-0.220334 -2.67552,-1.964713 -0.11709,-0.649891 -0.69934,-2.114734 -1.29379,-3.255204 -0.59445,-1.14047 -1.08083,-2.224405 -1.08083,-2.408744 0,-0.18434 0.59232,-0.938692 1.31627,-1.676341 l 1.31627,-1.341179 -1.06747,-1.101337 -1.06745,-1.101339 -1.4686,1.446515 -1.4686,1.446515 -1.99088,-1.109283 c -1.09499,-0.610106 -2.6956796,-1.277639 -3.5570696,-1.483407 -1.97725,-0.472314 -2.34928,-0.950029 -2.34928,-3.01657 V 9.6707703 h -1.40956 -1.40957 v 1.8410657 c 0,1.108567 -0.15579,1.95704 -0.39155,2.132553 -0.21535,0.160319 -1.23728001,0.544412 -2.27097001,0.853543 -1.03366999,0.309129 -2.55106999,0.97048 -3.37198999,1.469669 -0.82092,0.499187 -1.56409,0.907613 -1.6515,0.907613 -0.0874,0 -0.79764,-0.588769 -1.57833,-1.308377 l -1.41942,-1.308377 -0.97829,0.978285 -0.9782804,0.978286 1.3083804,1.419421 c 0.7196,0.780682 1.30837,1.495184 1.30837,1.587783 0,0.09261 -0.44888,0.963738 -0.99751,1.935861 -0.54864,0.972124 -1.23208,2.626227 -1.5187704,3.675787 l -0.52127,1.908289 -2.08345,0.09261 -2.08344,0.09262 v 1.537561 1.537558 l 2.08344,0.09262 2.08345,0.09261 0.52127,1.908293 c 0.2866904,1.04955 0.9701304,2.703654 1.5187704,3.675779 0.54863,0.972124 0.99751,1.843265 0.99751,1.935868 0,0.09258 -0.58877,0.807102 -1.30837,1.587781 l -1.3083804,1.419421 0.9915704,0.991577 0.99157,0.991576 1.4136,-1.387338 1.41358,-1.387337 2.11389,1.139573 c 1.16264,0.626762 2.81866999,1.313463 3.68007999,1.526007 0.86140001,0.212543 1.66974001,0.53978 1.79631001,0.727201 0.12657,0.187434 0.23229,1.151284 0.23493,2.14189 l 0.005,1.801118 h 1.40957 1.40956 l 0.005,-1.644503 z M 0.35142739,35.801682 C -4.5259426,33.371186 -5.7101226,26.696997 -1.9716126,22.708785 c 2.01851999,-2.153333 6.3142,-3.053824 9.07714,-1.902817 2.58043,1.074978 4.6912496,3.982599 4.9895796,6.873048 0.64343,6.234355 -6.1306696,10.919752 -11.74367961,8.122666 z M 7.4064174,33.689226 c 3.6345896,-2.518767 3.6446596,-8.071257 0.0189,-10.470619 -1.11247,-0.736214 -1.62492,-0.86175 -3.5177,-0.86175 -2.48754,0 -3.55341001,0.536008 -5.10124,2.565336 -1.6922,2.218591 -1.26003,6.131617 0.89972999,8.146154 2.01650001,1.880936 5.47913001,2.160132 7.70026001,0.620879 z M 23.964227,13.244179 c -0.32418,-0.844808 0.38406,-1.343506 2.05016,-1.443577 l 1.5616,-0.0938 -2.4485,-2.4280437 c -3.94396,-3.9110162 -7.84359,-6.2978872 -12.85695,-7.8694432 -10.3533496,-3.245497 -21.6123696,-0.184469 -28.86053,7.8464022 -1.91037,2.1166657 -2.92112,2.4934697 -3.11235,1.1602797 -0.12014,-0.8375157 3.99694,-5.0995449 6.67235,-6.9072799 12.31883039,-8.323645 27.87662,-6.759564 39.07629,3.9284802 2.40027,2.290627 2.42758,2.306028 2.42758,1.368931 0,-1.060367 0.75173,-1.56073 1.46076,-0.972292 0.33145,0.275085 0.41924,1.038417 0.35184,3.0594617 l -0.0899,2.692926 -3.01637,0.08919 c -2.57478,0.07614 -3.04561,0.01301 -3.21608,-0.431247 z"
       id="path836" />
    <text
       xml:space="preserve"
       style="font-style:normal;font-variant:normal;font-weight:bold;font-stretch:normal;font-size:19.7556px;line-height:1.25;font-family:Roboto;-inkscape-font-specification:'Roboto, Bold';font-variant-ligatures:normal;font-variant-caps:normal;font-variant-numeric:normal;font-variant-east-asian:normal;letter-spacing:0px;word-spacing:0px;fill:#ffffff;stroke-width:0.264583"
       x="-161.59041"
       y="12.908552"
       id="text1"><tspan
         sodipodi:role="line"
         id="tspan1"
         style="font-style:normal;font-variant:normal;font-weight:bold;font-stretch:normal;font-size:19.75555556px;font-family:Roboto;-inkscape-font-specification:'Roboto, Bold';font-variant-ligatures:normal;font-variant-caps:normal;font-variant-numeric:normal;font-variant-east-asian:normal;fill:#ffffff;stroke-width:0.264583"
         x="-161.59041"
         y="12.908552">A </tspan></text>
    <path
       id="rect2"
       style="fill:none;stroke:#ffffff;stroke-width:3.36993;paint-order:markers fill stroke"
       d="M -106.53239,30.181671 V 55.77018 h -57.0962 V 30.181671"
       sodipodi:nodetypes="cccc" />
    <text
       xml:space="preserve"
       style="font-size:7.05556px;line-height:1.05;font-family:sans-serif;text-align:center;letter-spacing:0px;word-spacing:0px;text-anchor:middle;fill:#ffffff;stroke-width:0.264583"
       x="-135.07877"
       y="36.969429"
       id="text2"><tspan
         sodipodi:role="line"
         id="tspan2"
         style="font-style:normal;font-variant:normal;font-weight:normal;font-stretch:normal;font-size:7.05556px;line-height:1.05;font-family:Roboto;-inkscape-font-specification:Roboto;fill:#ffffff;stroke-width:0.264583"
         x="-135.07877"
         y="36.969429">010010101010</tspan><tspan
         sodipodi:role="line"
         style="font-style:normal;font-variant:normal;font-weight:normal;font-stretch:normal;font-size:7.05556px;line-height:1.05;font-family:Roboto;-inkscape-font-specification:Roboto;fill:#ffffff;stroke-width:0.264583"
         x="-135.07877"
         y="44.623829"
         id="tspan3">101001010010</tspan><tspan
         sodipodi:role="line"
         style="font-style:normal;font-variant:normal;font-weight:normal;font-stretch:normal;font-size:7.05556px;line-height:1.05;font-family:Roboto;-inkscape-font-specification:Roboto;fill:#ffffff;stroke-width:0.264583"
         x="-135.07877"
         y="52.278233"
         id="tspan4">101010101011</tspan></text>
    <text
       xml:space="preserve"
       style="font-style:normal;font-variant:normal;font-weight:bold;font-stretch:normal;font-size:14.1111px;line-height:1.25;font-family:Roboto;-inkscape-font-specification:'Roboto, Bold';font-variant-ligatures:normal;font-variant-caps:normal;font-variant-numeric:normal;font-variant-east-asian:normal;letter-spacing:0px;word-spacing:0px;fill:#ffffff;stroke-width:0.264583"
       x="-147.81906"
       y="16.943245"
       id="text1-3"><tspan
         sodipodi:role="line"
         id="tspan1-9"
         style="font-style:normal;font-variant:normal;font-weight:bold;font-stretch:normal;font-size:14.11111111px;font-family:Roboto;-inkscape-font-specification:'Roboto, Bold';font-variant-ligatures:normal;font-variant-caps:normal;font-variant-numeric:normal;font-variant-east-asian:normal;fill:#ffffff;stroke-width:0.264583"
         x="-147.81906"
         y="16.943245">B </tspan></text>
    <text
       xml:space="preserve"
       style="font-style:normal;font-variant:normal;font-weight:bold;font-stretch:normal;font-size:22.5778px;line-height:1.25;font-family:Roboto;-inkscape-font-specification:'Roboto, Bold';font-variant-ligatures:normal;font-variant-caps:normal;font-variant-numeric:normal;font-variant-east-asian:normal;letter-spacing:0px;word-spacing:0px;fill:#ffffff;stroke-width:0.264583"
       x="-134.85448"
       y="12.180744"
       id="text1-6"><tspan
         sodipodi:role="line"
         id="tspan1-8"
         style="font-style:normal;font-variant:normal;font-weight:bold;font-stretch:normal;font-size:22.57777778px;font-family:Roboto;-inkscape-font-specification:'Roboto, Bold';font-variant-ligatures:normal;font-variant-caps:normal;font-variant-numeric:normal;font-variant-east-asian:normal;fill:#ffffff;stroke-width:0.264583"
         x="-134.85448"
         y="12.180744">C </tspan></text>
    <text
       xml:space="preserve"
       style="font-style:normal;font-variant:normal;font-weight:bold;font-stretch:normal;font-size:12.7px;line-height:1.25;font-family:Roboto;-inkscape-font-specification:'Roboto, Bold';font-variant-ligatures:normal;font-variant-caps:normal;font-variant-numeric:normal;font-variant-east-asian:normal;letter-spacing:0px;word-spacing:0px;fill:#ffffff;stroke-width:0.264583"
       x="-118.46313"
       y="19.506054"
       id="text1-0"><tspan
         sodipodi:role="line"
         id="tspan1-7"
         style="font-style:normal;font-variant:normal;font-weight:bold;font-stretch:normal;font-size:12.7px;font-family:Roboto;-inkscape-font-specification:'Roboto, Bold';font-variant-ligatures:normal;font-variant-caps:normal;font-variant-numeric:normal;font-variant-east-asian:normal;fill:#ffffff;stroke-width:0.264583"
         x="-118.46313"
         y="19.506054">D </tspan></text>
    <use
       xlink:href="#DownArrow"
       style="fill:#ffffff;stroke:#000000"
       id="use1"
       transform="matrix(0.30189112,0,0,0.30189112,-145.94856,11.242926)" />
  </g>
</svg>
